<?xml version="1.0" encoding="utf-8"?>
<!-- NEILREN.COM LOGO NEILCAT July 22, 2015 -->
<!DOCTYPE svg PUBLIC "-//W3C//DTD SVG 1.1//EN" "http://www.w3.org/Graphics/SVG/1.1/DTD/svg11.dtd">
<svg version="1.1" xmlns="http://www.w3.org/2000/svg" xmlns:xlink="http://www.w3.org/1999/xlink" viewBox="0 0 420 420" xml:space="preserve">
<path stroke="#000000" stroke-width="5" stroke-miterlimit="10" d="M160.584,86.91c6.602,6.99,13.204,13.981,19.807,20.971
c5.969,6.32,15.548-0.272,23.527-0.305c4.644-0.019,19.005,5.873,22.088,2.51c7.081-7.726,14.163-15.451,21.245-23.177
c7.564,25.529,15.844,50.824,19,77.333c1.609,13.518,0.933,25.215-7.011,36.933c-6.646,9.803-15.762,17.362-12.99,29.832
c2.353,10.586,10.026,19.41,13.311,29.731c4.274,13.437,7.751,27.078,11.17,40.755c5.748,22.995,9.611,53.2-6.813,72.749
c26.847,2.854,42.258-36.106,40.677-57.445c-1.018-13.739-3.486-25.264-9.011-37.888c-3.069-7.017-22.413-30.097-6-32.833
c22.722-3.789,32.975,52.004,34.216,65.917c2.23,24.984-4.328,57.437-26.623,72.299c-24.432,16.287-52.668,22.332-81.697,22.332
c-20.423,0-59.871-2.486-73.828-20.007c-35.975-45.158,6.542-106.43,21.641-152.292c4.379-13.303-7.768-21.698-13.796-31.877
c-6.614-11.166-7.734-26.67-8.188-39.281C140.436,138.913,154.056,110.056,160.584,86.91z"/>
<circle fill="none" stroke="#000000" stroke-width="14" stroke-miterlimit="10" cx="210.75" cy="210.077" r="202"/>
</svg>
